# xmcd CD database file
#
# Track frame offsets:
#	183
#	17170
#	29740
#	49033
#	64670
#	80713
#	91920
#	105845
#	119575
#	135845
#	150133
#	164190
#
# Disc length: 2352 seconds
#
# Revision: 5
# Processed by: cddbd v1.5.1PL0 Copyright (c) Steve Scherf et al.
# Submitted via: CDex 1.51
#
DISCID=92092e0c
DTITLE=Dizzy Gillespie - Dizzy Gillespie and the Double Six of Paris
DYEAR=1963
DGENRE=Jazz Vocal
TTITLE0=Emanon
TTITLE1=Anthropology
TTITLE2=Tin Tin Deo
TTITLE3=One Bass Hit
TTITLE4=Two Bass Hit
TTITLE5=Groovin' High
TTITLE6=Oo-Shoo-Be-Doo-Bee
TTITLE7=Hot House
TTITLE8=Con Alma
TTITLE9=Blue 'n' Boogie
TTITLE10=The Champ
TTITLE11=Ow!
EXTD=YEAR: 1963
EXTT0=
EXTT1=
EXTT2=
EXTT3=
EXTT4=
EXTT5=
EXTT6=
EXTT7=
EXTT8=
EXTT9=
EXTT10=
EXTT11=
PLAYORDER=
